<?xml version="1.0" encoding="UTF-8" standalone="no"?>
<!-- Created with Inkscape (http://www.inkscape.org/) -->

<svg
   xmlns:dc="http://purl.org/dc/elements/1.1/"
   xmlns:cc="http://creativecommons.org/ns#"
   xmlns:rdf="http://www.w3.org/1999/02/22-rdf-syntax-ns#"
   xmlns:svg="http://www.w3.org/2000/svg"
   xmlns="http://www.w3.org/2000/svg"
   xmlns:sodipodi="http://sodipodi.sourceforge.net/DTD/sodipodi-0.dtd"
   xmlns:inkscape="http://www.inkscape.org/namespaces/inkscape"
   width="210mm"
   height="297mm"
   viewBox="0 0 210 297"
   version="1.1"
   id="svg8"
   inkscape:version="0.92.1 r15371"
   sodipodi:docname="logo techniplast.svg">
  <defs
     id="defs2">
    <clipPath
       id="clipPath4501"
       clipPathUnits="userSpaceOnUse">
      <path
         inkscape:connector-curvature="0"
         id="path4499"
         d="M 0,136.369 H 662.393 V 0 H 0 Z" />
    </clipPath>
  </defs>
  <sodipodi:namedview
     id="base"
     pagecolor="#ffffff"
     bordercolor="#666666"
     borderopacity="1.0"
     inkscape:pageopacity="0.0"
     inkscape:pageshadow="2"
     inkscape:zoom="0.7"
     inkscape:cx="48.072448"
     inkscape:cy="602.58224"
     inkscape:document-units="mm"
     inkscape:current-layer="layer1"
     showgrid="false"
     inkscape:window-width="1920"
     inkscape:window-height="1018"
     inkscape:window-x="-8"
     inkscape:window-y="-8"
     inkscape:window-maximized="1" />
  <metadata
     id="metadata5">
    <rdf:RDF>
      <cc:Work
         rdf:about="">
        <dc:format>image/svg+xml</dc:format>
        <dc:type
           rdf:resource="http://purl.org/dc/dcmitype/StillImage" />
        <dc:title></dc:title>
      </cc:Work>
    </rdf:RDF>
  </metadata>
  <g
     inkscape:label="Layer 1"
     inkscape:groupmode="layer"
     id="layer1">
    <g
       transform="matrix(0.35277777,0,0,-0.35277777,-12.139182,166.08363)"
       inkscape:label="Logo TECHNIPLAST - Wersja podstawowa - pozytyw"
       id="g4493">
      <g
         id="g4495">
        <g
           clip-path="url(#clipPath4501)"
           id="g4497">
          <g
             transform="translate(383.998,70.5469)"
             id="g4503">
            <path
               inkscape:connector-curvature="0"
               id="path4505"
               style="fill:#1a171b;fill-opacity:1;fill-rule:nonzero;stroke:none"
               d="M 0,0 H -12.379 V 13.05 H 0 v 10e-4 c 3.598,0 6.525,-2.927 6.525,-6.525 C 6.525,2.928 3.598,0 0,0 m 0,25.999 h -25.328 v -56.725 l 6.473,0.002 c 3.582,0 6.476,2.898 6.476,6.473 v 11.303 H 0 c 10.74,0 19.475,8.734 19.475,19.474 0,10.739 -8.735,19.473 -19.475,19.473" />
          </g>
          <g
             transform="translate(450.709,39.8232)"
             id="g4507">
            <path
               inkscape:connector-curvature="0"
               id="path4509"
               style="fill:#1a171b;fill-opacity:1;fill-rule:nonzero;stroke:none"
               d="m 0,0 h -34.193 c -3.577,0 -6.475,2.897 -6.475,6.473 v 50.25 h 6.475 c 3.576,0 6.472,-2.897 6.472,-6.473 V 12.945 h 21.274 c 3.578,0 6.476,-2.897 6.476,-6.472 C 0.029,2.897 0,0 0,0" />
          </g>
          <g
             transform="translate(479.9805,62.7627)"
             id="g4511">
            <path
               inkscape:connector-curvature="0"
               id="path4513"
               style="fill:#1a171b;fill-opacity:1;fill-rule:nonzero;stroke:none"
               d="M 0,0 5.604,12.007 11.211,0 Z m 11.469,30.05 c -1.063,2.278 -3.35,3.735 -5.865,3.735 -2.514,0 -4.803,-1.457 -5.866,-3.735 L -25,-22.943 h 10.166 c 2.432,0 4.771,1.386 5.869,3.739 l 2.92,6.256 h 23.297 l 2.924,-6.256 c 1.092,-2.341 3.402,-3.72 5.826,-3.737 0.93,-0.008 10.195,0.031 10.195,0.031 z" />
          </g>
          <g
             transform="translate(550.1387,73.6592)"
             id="g4515">
            <path
               inkscape:connector-curvature="0"
               id="path4517"
               style="fill:#1a171b;fill-opacity:1;fill-rule:nonzero;stroke:none"
               d="m 0,0 v 0 l -13.678,1.879 c -1.984,0.273 -3.482,1.997 -3.482,4.012 0,2.232 1.814,4.047 4.049,4.047 H 8.225 c 3.574,0 6.474,2.901 6.474,6.476 v 6.473 h -27.81 c -0.116,0 -0.223,-0.002 -0.336,-0.009 -9.219,-0.176 -16.662,-7.726 -16.662,-16.987 0,-8.448 6.298,-15.683 14.656,-16.836 l 0.017,-0.003 13.676,-1.879 c 1.987,-0.272 3.49,-1.998 3.49,-4.01 0,-2.235 -1.82,-4.05 -4.054,-4.05 h -21.328 c -3.575,0 -6.473,-2.899 -6.473,-6.474 0,-3.577 0.016,-6.475 0.016,-6.475 h 27.785 c 0.113,0 0.228,0.002 0.336,0.008 9.218,0.178 16.664,7.728 16.664,16.991 C 14.676,-8.385 8.365,-1.146 0,0" />
          </g>
          <g
             transform="translate(55.7344,83.5986)"
             id="g4519">
            <path
               inkscape:connector-curvature="0"
               id="path4521"
               style="fill:#58ab27;fill-opacity:1;fill-rule:nonzero;stroke:none"
               d="m 0,0 h -10.41 c -3.578,0 -6.479,2.901 -6.479,6.475 v 6.474 H 0 c 3.576,0 6.473,-2.898 6.473,-6.474 C 6.473,2.901 3.576,0 0,0" />
          </g>
          <g
             transform="translate(73.8125,39.8213)"
             id="g4523">
            <path
               inkscape:connector-curvature="0"
               id="path4525"
               style="fill:#1a171b;fill-opacity:1;fill-rule:nonzero;stroke:none"
               d="m 0,0 h -6.48 v 50.252 c 0,3.576 2.902,6.475 6.48,6.475 h 28.84 v -6.475 c 0,-3.573 -2.899,-6.475 -6.475,-6.475 H 6.471 V 6.476 C 6.471,2.899 3.572,0 0,0" />
          </g>
          <g
             transform="translate(150.6348,83.5986)"
             id="g4527">
            <path
               inkscape:connector-curvature="0"
               id="path4529"
               style="fill:#1a171b;fill-opacity:1;fill-rule:nonzero;stroke:none"
               d="m 0,0 c 3.578,0 6.477,2.901 6.477,6.475 v 6.474 h -41.35 c -3.572,0 -6.473,-2.898 -6.473,-6.474 v -43.777 c 0,-3.576 2.901,-6.475 6.473,-6.475 l 41.322,0.002 c 0,0 0.028,2.897 0.028,6.473 0,3.574 -2.899,6.472 -6.477,6.472 h -28.395 v 8.943 h 20.122 c 3.576,0 6.474,2.897 6.474,6.476 0,3.575 -2.898,6.472 -6.474,6.472 H -28.395 V 0 Z" />
          </g>
          <g
             transform="translate(188.5547,38.8477)"
             id="g4531">
            <path
               inkscape:connector-curvature="0"
               id="path4533"
               style="fill:#1a171b;fill-opacity:1;fill-rule:nonzero;stroke:none"
               d="m 0,0 c -16.174,0 -29.334,13.16 -29.334,29.34 0,16.175 13.16,29.333 29.334,29.333 6.961,0 13.717,-2.485 19.021,-7.001 1.243,-1.059 4.399,-4.703 4.399,-4.703 0,0 -2.404,-2.942 -3.668,-4.422 -2.316,-2.725 -6.404,-3.053 -9.125,-0.734 -2.963,2.523 -6.74,3.912 -10.627,3.912 -9.035,0 -16.385,-7.35 -16.385,-16.385 0,-9.039 7.35,-16.391 16.385,-16.391 3.887,0 7.664,1.389 10.627,3.912 2.721,2.317 6.809,1.991 9.125,-0.731 1.078,-1.262 3.504,-5.01 3.504,-5.01 0,0 -2.774,-2.872 -4.235,-4.115 C 13.717,2.487 6.961,0 0,0" />
          </g>
          <g
             transform="translate(260.248,96.5479)"
             id="g4535">
            <path
               inkscape:connector-curvature="0"
               id="path4537"
               style="fill:#1a171b;fill-opacity:1;fill-rule:nonzero;stroke:none"
               d="m 0,0 h -6.477 v -21.889 h -22.525 v 15.414 c 0,3.577 -2.896,6.475 -6.475,6.475 h -6.472 v -56.727 c 0,0 2.898,0.002 6.472,0.002 3.579,0 6.475,2.898 6.475,6.474 v 15.415 h 22.525 v -21.891 c 0,0 2.901,0.002 6.477,0.002 3.574,0 6.475,2.898 6.475,6.474 V -6.475 C 6.475,-2.898 3.574,0 0,0" />
          </g>
          <g
             transform="translate(341.8008,39.8232)"
             id="g4539">
            <path
               inkscape:connector-curvature="0"
               id="path4541"
               style="fill:#1a171b;fill-opacity:1;fill-rule:nonzero;stroke:none"
               d="M 0,0 C -3.576,0 -6.477,-0.002 -6.477,-0.002 V 56.725 H 0 c 3.572,0 6.473,-2.899 6.473,-6.475 V 6.474 C 6.473,2.897 3.572,0 0,0" />
          </g>
          <g
             transform="translate(318.4551,96.5469)"
             id="g4543">
            <path
               inkscape:connector-curvature="0"
               id="path4545"
               style="fill:#1a171b;fill-opacity:1;fill-rule:nonzero;stroke:none"
               d="m 0,0 h -6.477 v -31.974 l -23.785,29.381 c -0.017,0.025 -0.033,0.035 -0.047,0.055 C -31.492,-0.998 -33.35,0 -35.445,0 h -6.475 v -56.726 c 0,0 2.9,0.002 6.475,0.002 3.578,0 6.476,2.898 6.476,6.474 v 25.495 L -5.184,-54.13 c 0.012,-0.014 0.024,-0.018 0.036,-0.034 1.181,-1.554 3.044,-2.56 5.148,-2.56 3.572,0 6.471,2.898 6.471,6.474 V -6.474 C 6.471,-2.897 3.572,0 0,0" />
          </g>
          <g
             transform="translate(596.9336,96.5459)"
             id="g4547">
            <path
               inkscape:connector-curvature="0"
               id="path4549"
               style="fill:#1a171b;fill-opacity:1;fill-rule:nonzero;stroke:none"
               d="m 0,0 h -26.609 v -6.473 c 0,-3.573 2.896,-6.475 6.472,-6.475 h 13.662 v -37.302 -6.477 c 0,0 2.901,0.002 6.475,0.002 3.574,0 6.473,2.9 6.473,6.475 v 37.302 h 13.664 c 3.576,0 6.474,2.902 6.474,6.475 0,3.577 0.002,6.473 0.002,6.473 z" />
          </g>
        </g>
      </g>
    </g>
  </g>
</svg>
